# This file uses centimeters as units for non-parametric coordinates.

mtllib appleall.mtl
g default
v 0.188820 -0.000000 -0.327045
v -0.188819 -0.000000 -0.327045
v -0.377639 -0.000000 -0.000000
v -0.188820 -0.000000 0.327045
v 0.188819 -0.000000 0.327045
v 0.377639 -0.000000 0.000000
v 0.275199 0.321239 -0.476658
v -0.275198 0.321239 -0.476658
v -0.550397 0.321239 -0.000000
v -0.275199 0.321239 0.476658
v 0.275198 0.321239 0.476658
v 0.550397 0.321239 -0.000000
v 0.305516 0.718312 -0.529170
v -0.305516 0.718312 -0.529170
v -0.611033 0.718312 -0.000000
v -0.305516 0.718312 0.529170
v 0.305516 0.718312 0.529170
v 0.611033 0.718312 0.000000
v 0.188820 0.956655 -0.327045
v -0.188819 0.956655 -0.327045
v -0.377639 0.956655 -0.000000
v -0.188820 0.956655 0.327045
v 0.188819 0.956655 0.327045
v 0.377639 0.956655 0.000000
v 0.000000 0.072185 0.000000
v -0.027929 0.832978 -0.048374
v -0.055858 0.832978 -0.000000
v -0.027929 0.832978 0.048374
v 0.027929 0.832978 0.048374
v 0.055858 0.832978 0.000000
v 0.027929 0.832978 -0.048374
v 0.027929 1.107860 -0.048374
v -0.027929 1.107860 -0.048374
v 0.000000 1.107860 0.000000
v -0.055858 1.107860 -0.000000
v -0.027929 1.107860 0.048374
v 0.027929 1.107860 0.048374
v 0.055858 1.107860 0.000000
vt 0.657777 0.781102
vt 0.512468 0.781102
vt 0.479231 0.657495
vt 0.691014 0.657495
vt 0.467565 0.504708
vt 0.702680 0.504708
vt 0.657777 0.412997
vt 0.512468 0.412997
vt 0.001883 0.331449
vt 0.001883 0.205608
vt 0.125491 0.205608
vt 0.125491 0.389018
vt 0.001883 0.079766
vt 0.125491 0.022198
vt 0.278278 0.205608
vt 0.278278 0.409224
vt 0.278278 0.001992
vt 0.369988 0.205608
vt 0.369988 0.331449
vt 0.369988 0.079766
vt 0.753384 0.412997
vt 0.898693 0.412997
vt 0.931930 0.536605
vt 0.720147 0.536605
vt 0.943596 0.689392
vt 0.708481 0.689392
vt 0.898693 0.781102
vt 0.753384 0.781102
vt 0.376135 0.331449
vt 0.376135 0.205608
vt 0.499742 0.205608
vt 0.499742 0.389018
vt 0.376135 0.079766
vt 0.499742 0.022198
vt 0.652529 0.205608
vt 0.652529 0.409224
vt 0.652529 0.001992
vt 0.744240 0.205608
vt 0.744240 0.331449
vt 0.744240 0.079766
vt 0.210081 0.630961
vt 0.210081 0.485652
vt 0.335923 0.558307
vt 0.335923 0.412997
vt 0.335923 0.703616
vt 0.461764 0.485652
vt 0.461764 0.630961
vt 0.433632 0.718136
vt 0.433632 0.739630
vt 0.415018 0.728883
vt 0.415018 0.750376
vt 0.415018 0.707390
vt 0.396404 0.739630
vt 0.396404 0.718136
vt 0.253566 0.925353
vt 0.127725 0.998008
vt 0.127725 0.874192
vt 0.146339 0.863445
vt 0.001883 0.925353
vt 0.109111 0.863445
vt 0.253566 0.780044
vt 0.146339 0.841952
vt 0.001883 0.780044
vt 0.109111 0.841952
vt 0.127725 0.707390
vt 0.127725 0.831206
vt 0.389948 0.813160
vt 0.368454 0.813160
vt 0.368454 0.707390
vt 0.389948 0.707390
vt 0.357708 0.813160
vt 0.357708 0.707390
vt 0.260045 0.707390
vt 0.278659 0.707390
vt 0.278659 0.813160
vt 0.260045 0.813160
vt 0.285843 0.707390
vt 0.307336 0.707390
vt 0.307336 0.813160
vt 0.285843 0.813160
vt 0.313483 0.707390
vt 0.332097 0.707390
vt 0.332097 0.813160
vt 0.313483 0.813160
vt 0.350710 0.707390
vt 0.350710 0.813160
vn 0.000000 -0.422193 -0.906506
vn 0.000000 -0.422193 -0.906506
vn 0.000000 -0.422193 -0.906506
vn 0.000000 -0.422193 -0.906506
vn -0.785057 -0.422193 -0.453253
vn -0.785057 -0.422193 -0.453253
vn -0.785057 -0.422193 -0.453253
vn -0.785057 -0.422193 -0.453253
vn -0.785057 -0.422193 0.453253
vn -0.785057 -0.422193 0.453253
vn -0.785057 -0.422193 0.453253
vn -0.785057 -0.422193 0.453253
vn -0.000000 -0.422193 0.906506
vn -0.000000 -0.422193 0.906506
vn -0.000000 -0.422193 0.906506
vn -0.000000 -0.422193 0.906506
vn 0.785057 -0.422193 0.453253
vn 0.785057 -0.422193 0.453253
vn 0.785057 -0.422193 0.453253
vn 0.785057 -0.422193 0.453253
vn 0.785057 -0.422193 -0.453253
vn 0.785057 -0.422193 -0.453253
vn 0.785057 -0.422193 -0.453253
vn 0.785057 -0.422193 -0.453253
vn 0.000000 -0.131106 -0.991368
vn 0.000000 -0.131106 -0.991368
vn 0.000000 -0.131106 -0.991368
vn 0.000000 -0.131106 -0.991368
vn -0.858550 -0.131106 -0.495684
vn -0.858550 -0.131106 -0.495684
vn -0.858550 -0.131106 -0.495684
vn -0.858550 -0.131106 -0.495684
vn -0.858550 -0.131107 0.495684
vn -0.858550 -0.131107 0.495684
vn -0.858550 -0.131107 0.495684
vn -0.858550 -0.131107 0.495684
vn -0.000000 -0.131107 0.991368
vn -0.000000 -0.131107 0.991368
vn -0.000000 -0.131107 0.991368
vn -0.000000 -0.131107 0.991368
vn 0.858550 -0.131106 0.495684
vn 0.858550 -0.131106 0.495684
vn 0.858550 -0.131106 0.495684
vn 0.858550 -0.131106 0.495684
vn 0.858550 -0.131106 -0.495684
vn 0.858550 -0.131106 -0.495684
vn 0.858550 -0.131106 -0.495684
vn 0.858550 -0.131106 -0.495684
vn 0.000000 0.646781 -0.762676
vn 0.000000 0.646781 -0.762676
vn 0.000000 0.646781 -0.762676
vn 0.000000 0.646781 -0.762676
vn -0.660497 0.646781 -0.381338
vn -0.660497 0.646781 -0.381338
vn -0.660497 0.646781 -0.381338
vn -0.660497 0.646781 -0.381338
vn -0.660497 0.646781 0.381338
vn -0.660497 0.646781 0.381338
vn -0.660497 0.646781 0.381338
vn -0.660497 0.646781 0.381338
vn 0.000000 0.646781 0.762676
vn 0.000000 0.646781 0.762676
vn 0.000000 0.646781 0.762676
vn 0.000000 0.646781 0.762676
vn 0.660497 0.646781 0.381338
vn 0.660497 0.646781 0.381338
vn 0.660497 0.646781 0.381338
vn 0.660497 0.646781 0.381338
vn 0.660497 0.646781 -0.381338
vn 0.660497 0.646781 -0.381338
vn 0.660497 0.646781 -0.381338
vn 0.660497 0.646781 -0.381338
vn -0.000000 -0.976497 0.215532
vn -0.000000 -0.976497 0.215532
vn -0.000000 -0.976497 0.215532
vn 0.186656 -0.976497 0.107766
vn 0.186656 -0.976497 0.107766
vn 0.186656 -0.976497 0.107766
vn 0.186656 -0.976497 -0.107766
vn 0.186656 -0.976497 -0.107766
vn 0.186656 -0.976497 -0.107766
vn 0.000000 -0.976497 -0.215532
vn 0.000000 -0.976497 -0.215532
vn 0.000000 -0.976497 -0.215532
vn -0.186656 -0.976497 -0.107766
vn -0.186656 -0.976497 -0.107766
vn -0.186656 -0.976497 -0.107766
vn -0.186656 -0.976497 0.107766
vn -0.186656 -0.976497 0.107766
vn -0.186656 -0.976497 0.107766
vn 0.000000 1.000000 0.000001
vn 0.000000 1.000000 0.000001
vn 0.000000 1.000000 0.000001
vn 0.000000 1.000000 -0.000001
vn 0.000000 1.000000 -0.000001
vn 0.000000 1.000000 -0.000001
vn 0.000000 1.000000 0.000000
vn 0.000000 1.000000 0.000000
vn 0.000000 1.000000 0.000000
vn 0.000000 1.000000 0.000000
vn 0.000000 1.000000 0.000000
vn 0.000000 1.000000 0.000000
vn 0.000000 1.000000 0.000000
vn 0.000000 1.000000 0.000000
vn 0.000000 1.000000 0.000000
vn 0.000000 1.000000 0.000000
vn 0.000000 1.000000 0.000000
vn 0.000000 1.000000 0.000000
vn 0.351308 0.914026 0.202827
vn 0.351308 0.914026 0.202827
vn 0.351308 0.914026 0.202827
vn 0.351308 0.914026 0.202827
vn 0.351308 0.914026 -0.202828
vn 0.351308 0.914026 -0.202828
vn 0.351308 0.914026 -0.202828
vn 0.351308 0.914026 -0.202828
vn 0.000000 0.914026 -0.405655
vn 0.000000 0.914026 -0.405655
vn 0.000000 0.914026 -0.405655
vn 0.000000 0.914026 -0.405655
vn -0.351308 0.914026 -0.202828
vn -0.351308 0.914026 -0.202828
vn -0.351308 0.914026 -0.202828
vn -0.351308 0.914026 -0.202828
vn -0.351308 0.914026 0.202827
vn -0.351308 0.914026 0.202827
vn -0.351308 0.914026 0.202827
vn -0.351308 0.914026 0.202827
vn -0.000000 0.914026 0.405656
vn -0.000000 0.914026 0.405656
vn -0.000000 0.914026 0.405656
vn -0.000000 0.914026 0.405656
vn 0.000000 0.000000 -1.000000
vn 0.000000 0.000000 -1.000000
vn 0.000000 0.000000 -1.000000
vn 0.000000 0.000000 -1.000000
vn -0.866025 0.000000 -0.500000
vn -0.866025 0.000000 -0.500000
vn -0.866025 0.000000 -0.500000
vn -0.866025 0.000000 -0.500000
vn -0.866026 0.000000 0.500000
vn -0.866026 0.000000 0.500000
vn -0.866026 0.000000 0.500000
vn -0.866026 0.000000 0.500000
vn 0.000000 0.000000 1.000000
vn 0.000000 0.000000 1.000000
vn 0.000000 0.000000 1.000000
vn 0.000000 0.000000 1.000000
vn 0.866025 0.000000 0.500000
vn 0.866025 0.000000 0.500000
vn 0.866025 0.000000 0.500000
vn 0.866025 0.000000 0.500000
vn 0.866026 0.000000 -0.500000
vn 0.866026 0.000000 -0.500000
vn 0.866026 0.000000 -0.500000
vn 0.866026 0.000000 -0.500000
s off
g pSphere1
usemtl lambert3SG
f 1/1/1 2/2/2 8/3/3 7/4/4
f 2/9/5 3/10/6 9/11/7 8/12/8
f 3/10/9 4/13/10 10/14/11 9/11/12
f 4/21/13 5/22/14 11/23/15 10/24/16
f 5/29/17 6/30/18 12/31/19 11/32/20
f 6/30/21 1/33/22 7/34/23 12/31/24
f 7/4/25 8/3/26 14/5/27 13/6/28
f 8/12/29 9/11/30 15/15/31 14/16/32
f 9/11/33 10/14/34 16/17/35 15/15/36
f 10/24/37 11/23/38 17/25/39 16/26/40
f 11/32/41 12/31/42 18/35/43 17/36/44
f 12/31/45 7/34/46 13/37/47 18/35/48
f 19/7/49 13/6/50 14/5/51 20/8/52
f 14/16/53 15/15/54 21/18/55 20/19/56
f 15/15/57 16/17/58 22/20/59 21/18/60
f 16/26/61 17/25/62 23/27/63 22/28/64
f 17/36/65 18/35/66 24/38/67 23/39/68
f 18/35/69 13/37/70 19/40/71 24/38/72
f 2/41/73 1/42/74 25/43/75
f 3/45/76 2/41/77 25/43/78
f 4/47/79 3/45/80 25/43/81
f 5/46/82 4/47/83 25/43/84
f 6/44/85 5/46/86 25/43/87
f 1/42/88 6/44/89 25/43/90
f 32/48/91 33/49/92 34/50/93
f 33/49/94 35/51/95 34/50/96
f 35/51/97 36/53/98 34/50/99
f 36/53/100 37/54/101 34/50/102
f 37/54/103 38/52/104 34/50/105
f 38/52/106 32/48/107 34/50/108
f 20/55/109 21/56/110 27/57/111 26/58/112
f 21/56/113 22/59/114 28/60/115 27/57/116
f 22/59/117 23/63/118 29/64/119 28/60/120
f 23/63/121 24/65/122 30/66/123 29/64/124
f 24/65/125 19/61/126 31/62/127 30/66/128
f 19/61/129 20/55/130 26/58/131 31/62/132
f 31/67/133 26/68/134 33/69/135 32/70/136
f 26/68/137 27/71/138 35/72/139 33/69/140
f 27/73/141 28/74/142 36/75/143 35/76/144
f 28/77/145 29/78/146 37/79/147 36/80/148
f 29/81/149 30/82/150 38/83/151 37/84/152
f 30/82/153 31/85/154 32/86/155 38/83/156
g default
v 0.214915 -0.119916 -0.372243
v -0.214915 -0.119916 -0.372243
v -0.429829 -0.119916 -0.000000
v -0.214915 -0.119916 0.372243
v 0.214915 -0.119916 0.372243
v 0.429829 -0.119916 0.000000
v 0.344212 0.273889 -0.596193
v -0.344212 0.273889 -0.596193
v -0.688425 0.273889 -0.000000
v -0.344212 0.273889 0.596193
v 0.344212 0.273889 0.596193
v 0.688425 0.273889 0.000000
v 0.369473 0.762975 -0.639946
v -0.369473 0.762975 -0.639947
v -0.738946 0.762975 -0.000000
v -0.369473 0.762975 0.639946
v 0.369473 0.762975 0.639947
v 0.738946 0.762975 0.000000
v 0.207238 1.090849 -0.358946
v -0.207238 1.090849 -0.358946
v -0.414475 1.090849 -0.000000
v -0.207238 1.090849 0.358946
v 0.207238 1.090849 0.358946
v 0.414475 1.090849 -0.000000
v -0.000000 -0.093426 0.000000
v -0.073731 1.094581 -0.127706
v -0.147462 1.094581 -0.000000
v -0.073731 1.094581 0.127706
v 0.073731 1.094581 0.127706
v 0.147462 1.094581 -0.000000
v 0.073731 1.094581 -0.127706
v 0.070457 1.191946 -0.122035
v -0.070457 1.191946 -0.122035
v 0.000000 1.191946 -0.000000
v -0.140913 1.191946 -0.000000
v -0.070457 1.191946 0.122035
v 0.070457 1.191946 0.122035
v 0.140913 1.191946 -0.000000
vt 0.000000 0.200000
vt 0.166667 0.200000
vt 0.333333 0.200000
vt 0.500000 0.200000
vt 0.666667 0.200000
vt 0.833333 0.200000
vt 1.000000 0.200000
vt 0.000000 0.400000
vt 0.166667 0.400000
vt 0.333333 0.400000
vt 0.500000 0.400000
vt 0.666667 0.400000
vt 0.833333 0.400000
vt 1.000000 0.400000
vt 0.000000 0.600000
vt 0.166667 0.600000
vt 0.333333 0.600000
vt 0.500000 0.600000
vt 0.666667 0.600000
vt 0.833333 0.600000
vt 1.000000 0.600000
vt 0.000000 0.800000
vt 0.166667 0.800000
vt 0.333333 0.800000
vt 0.500000 0.800000
vt 0.666667 0.800000
vt 0.833333 0.800000
vt 1.000000 0.800000
vt 0.083333 0.000000
vt 0.250000 0.000000
vt 0.416667 0.000000
vt 0.583333 0.000000
vt 0.750000 0.000000
vt 0.916667 0.000000
vt 0.083333 1.000000
vt 0.250000 1.000000
vt 0.416667 1.000000
vt 0.583333 1.000000
vt 0.750000 1.000000
vt 0.916667 1.000000
vt 0.095659 0.970417
vt 0.237674 0.970417
vt 0.262326 0.970417
vt 0.404341 0.970417
vt 0.428993 0.970417
vt 0.571007 0.970417
vt 0.595659 0.970417
vt 0.737674 0.970417
vt 0.762326 0.970417
vt 0.904341 0.970417
vt 0.928993 0.970417
vt 0.071007 0.970417
vt 0.071007 0.970417
vt 0.095659 0.970417
vt 0.237674 0.970417
vt 0.262326 0.970417
vt 0.404341 0.970417
vt 0.428993 0.970417
vt 0.571007 0.970417
vt 0.595659 0.970417
vt 0.737674 0.970417
vt 0.762326 0.970417
vt 0.904341 0.970417
vt 0.928993 0.970417
vn -0.000000 0.494339 0.869270
vn -0.000000 0.494339 0.869270
vn -0.000000 0.494339 0.869270
vn -0.000000 0.494339 0.869270
vn 0.752809 0.494338 0.434635
vn 0.752809 0.494339 0.434635
vn 0.752809 0.494338 0.434635
vn 0.752809 0.494338 0.434635
vn 0.752810 0.494339 -0.434635
vn 0.752810 0.494339 -0.434635
vn 0.752810 0.494339 -0.434635
vn 0.752810 0.494339 -0.434635
vn 0.000000 0.494338 -0.869270
vn 0.000000 0.494338 -0.869270
vn 0.000000 0.494338 -0.869270
vn 0.000000 0.494338 -0.869270
vn -0.752809 0.494339 -0.434635
vn -0.752810 0.494338 -0.434635
vn -0.752809 0.494338 -0.434635
vn -0.752809 0.494339 -0.434635
vn -0.752810 0.494339 0.434635
vn -0.752810 0.494339 0.434635
vn -0.752810 0.494339 0.434635
vn -0.752810 0.494339 0.434635
vn -0.000000 0.089104 0.996022
vn -0.000000 0.089104 0.996022
vn -0.000000 0.089104 0.996022
vn -0.000000 0.089104 0.996022
vn 0.862581 0.089104 0.498011
vn 0.862581 0.089104 0.498011
vn 0.862581 0.089104 0.498011
vn 0.862581 0.089104 0.498011
vn 0.862581 0.089104 -0.498011
vn 0.862581 0.089104 -0.498011
vn 0.862581 0.089104 -0.498011
vn 0.862581 0.089104 -0.498011
vn 0.000000 0.089104 -0.996022
vn 0.000000 0.089104 -0.996022
vn 0.000000 0.089104 -0.996022
vn 0.000000 0.089104 -0.996022
vn -0.862581 0.089103 -0.498011
vn -0.862581 0.089103 -0.498011
vn -0.862581 0.089103 -0.498011
vn -0.862581 0.089103 -0.498011
vn -0.862581 0.089104 0.498011
vn -0.862581 0.089104 0.498011
vn -0.862581 0.089104 0.498011
vn -0.862581 0.089104 0.498011
vn -0.000000 -0.650745 0.759296
vn -0.000000 -0.650745 0.759296
vn -0.000000 -0.650745 0.759296
vn -0.000000 -0.650745 0.759296
vn 0.657570 -0.650745 0.379648
vn 0.657570 -0.650745 0.379648
vn 0.657570 -0.650745 0.379648
vn 0.657570 -0.650745 0.379648
vn 0.657570 -0.650745 -0.379648
vn 0.657570 -0.650745 -0.379648
vn 0.657570 -0.650745 -0.379648
vn 0.657570 -0.650745 -0.379648
vn 0.000000 -0.650745 -0.759296
vn 0.000000 -0.650745 -0.759296
vn 0.000000 -0.650745 -0.759297
vn 0.000000 -0.650745 -0.759297
vn -0.657570 -0.650745 -0.379648
vn -0.657570 -0.650745 -0.379648
vn -0.657570 -0.650745 -0.379648
vn -0.657570 -0.650745 -0.379648
vn -0.657570 -0.650745 0.379648
vn -0.657570 -0.650745 0.379648
vn -0.657570 -0.650745 0.379648
vn -0.657570 -0.650745 0.379648
vn 0.000000 0.997477 -0.070986
vn 0.000000 0.997477 -0.070986
vn 0.000000 0.997477 -0.070986
vn -0.061475 0.997477 -0.035493
vn -0.061475 0.997477 -0.035493
vn -0.061475 0.997477 -0.035493
vn -0.061475 0.997477 0.035493
vn -0.061475 0.997477 0.035493
vn -0.061475 0.997477 0.035493
vn 0.000000 0.997477 0.070985
vn 0.000000 0.997477 0.070986
vn 0.000000 0.997477 0.070986
vn 0.061475 0.997477 0.035493
vn 0.061475 0.997477 0.035493
vn 0.061475 0.997477 0.035493
vn 0.061475 0.997477 -0.035493
vn 0.061475 0.997477 -0.035493
vn 0.061475 0.997477 -0.035493
vn -0.000001 -1.000000 -0.000002
vn -0.000001 -1.000000 -0.000002
vn -0.000001 -1.000000 -0.000002
vn -0.000001 -1.000000 -0.000001
vn -0.000001 -1.000000 -0.000001
vn -0.000001 -1.000000 -0.000001
vn -0.000001 -1.000000 0.000001
vn -0.000001 -1.000000 0.000001
vn -0.000001 -1.000000 0.000001
vn 0.000000 -1.000000 0.000000
vn 0.000000 -1.000000 0.000000
vn 0.000000 -1.000000 0.000000
vn -0.000000 -1.000000 0.000001
vn -0.000000 -1.000000 0.000001
vn -0.000000 -1.000000 0.000001
vn 0.000000 -1.000000 0.000001
vn 0.000000 -1.000000 0.000001
vn 0.000000 -1.000000 0.000001
vn 0.013974 -0.999870 0.008068
vn 0.013974 -0.999870 0.008068
vn 0.013974 -0.999870 0.008068
vn 0.013974 -0.999870 0.008068
vn 0.013974 -0.999870 -0.008068
vn 0.013974 -0.999870 -0.008068
vn 0.013974 -0.999870 -0.008068
vn 0.013974 -0.999870 -0.008068
vn 0.000000 -0.999870 -0.016135
vn 0.000000 -0.999870 -0.016135
vn 0.000000 -0.999870 -0.016135
vn 0.000000 -0.999870 -0.016135
vn -0.013974 -0.999870 -0.008068
vn -0.013974 -0.999870 -0.008068
vn -0.013974 -0.999870 -0.008068
vn -0.013974 -0.999870 -0.008068
vn -0.013974 -0.999870 0.008068
vn -0.013974 -0.999870 0.008068
vn -0.013974 -0.999870 0.008068
vn -0.013974 -0.999870 0.008068
vn -0.000000 -0.999870 0.016136
vn -0.000000 -0.999870 0.016136
vn -0.000000 -0.999870 0.016136
vn -0.000000 -0.999870 0.016136
vn -0.000000 -0.058151 0.998308
vn -0.000000 -0.058151 0.998308
vn -0.000000 -0.058151 0.998308
vn -0.000000 -0.058151 0.998308
vn 0.864560 -0.058151 0.499154
vn 0.864560 -0.058151 0.499154
vn 0.864560 -0.058151 0.499154
vn 0.864560 -0.058151 0.499154
vn 0.864560 -0.058151 -0.499154
vn 0.864560 -0.058151 -0.499154
vn 0.864560 -0.058151 -0.499154
vn 0.864560 -0.058151 -0.499154
vn -0.000000 -0.058151 -0.998308
vn -0.000000 -0.058151 -0.998308
vn -0.000000 -0.058151 -0.998308
vn -0.000000 -0.058151 -0.998308
vn -0.864560 -0.058151 -0.499154
vn -0.864560 -0.058151 -0.499154
vn -0.864560 -0.058151 -0.499154
vn -0.864560 -0.058151 -0.499154
vn -0.864560 -0.058151 0.499154
vn -0.864560 -0.058151 0.499154
vn -0.864560 -0.058151 0.499154
vn -0.864560 -0.058151 0.499154
s off
g pSphere2
usemtl lambert4SG
f 39/87/157 45/94/158 46/95/159 40/88/160
f 40/88/161 46/95/162 47/96/163 41/89/164
f 41/89/165 47/96/166 48/97/167 42/90/168
f 42/90/169 48/97/170 49/98/171 43/91/172
f 43/91/173 49/98/174 50/99/175 44/92/176
f 44/92/177 50/99/178 45/100/179 39/93/180
f 45/94/181 51/101/182 52/102/183 46/95/184
f 46/95/185 52/102/186 53/103/187 47/96/188
f 47/96/189 53/103/190 54/104/191 48/97/192
f 48/97/193 54/104/194 55/105/195 49/98/196
f 49/98/197 55/105/198 56/106/199 50/99/200
f 50/99/201 56/106/202 51/107/203 45/100/204
f 57/108/205 58/109/206 52/102/207 51/101/208
f 52/102/209 58/109/210 59/110/211 53/103/212
f 53/103/213 59/110/214 60/111/215 54/104/216
f 54/104/217 60/111/218 61/112/219 55/105/220
f 55/105/221 61/112/222 62/113/223 56/106/224
f 56/106/225 62/113/226 57/114/227 51/107/228
f 40/88/229 63/115/230 39/87/231
f 41/89/232 63/116/233 40/88/234
f 42/90/235 63/117/236 41/89/237
f 43/91/238 63/118/239 42/90/240
f 44/92/241 63/119/242 43/91/243
f 39/93/244 63/120/245 44/92/246
f 70/139/247 72/121/248 71/140/249
f 71/141/250 72/122/251 73/142/252
f 73/143/253 72/123/254 74/144/255
f 74/145/256 72/124/257 75/146/258
f 75/147/259 72/125/260 76/148/261
f 76/149/262 72/126/263 70/150/264
f 58/109/265 64/128/266 65/129/267 59/110/268
f 59/110/269 65/130/270 66/131/271 60/111/272
f 60/111/273 66/132/274 67/133/275 61/112/276
f 61/112/277 67/134/278 68/135/279 62/113/280
f 62/113/281 68/136/282 69/137/283 57/114/284
f 57/108/285 69/138/286 64/127/287 58/109/288
f 69/138/289 70/139/290 71/140/291 64/127/292
f 64/128/293 71/141/294 73/142/295 65/129/296
f 65/130/297 73/143/298 74/144/299 66/131/300
f 66/132/301 74/145/302 75/146/303 67/133/304
f 67/134/305 75/147/306 76/148/307 68/135/308
f 68/136/309 76/149/310 70/150/311 69/137/312
